REM DIRINDEX 1\2\4\18,1\2\4\19,1\2\5\20,1\2\5\21,1\2\6\22,1\2\6\23,1\2\7\24,1\2\8\25,1\2\9\26,1\2\10\27,1\2\10\28,1\3\11\29,1\3\11\30,1\3\11\31,1\3\11\32,1\3\12\33,1\3\12\34,1\3\12\35,1\3\12\36,1\3\13\37,1\3\13\38,1\3\13\39,1\3\13\40,1\3\14\41,1\3\14\42,1\3\15\43,1\3\15\44,1\3\16\45,1\3\16\46,1\3\17\47,1\3\17\48,1\3\17\49,1\3\17\50
REM DIRNAME folder01,folder02,folder03,folder04,folder05,folder06,folder07,folder08,folder09,folder10,folder11,folder12,folder13,folder14,folder15,folder16,folder17,folder18,folder19,folder20,folder21,folder22,folder23,folder24,folder25,folder26,folder27,folder28,folder29,folder30,folder31,folder32,folder33,folder34,folder35,folder36,folder37,folder38,folder39,folder40,folder41,folder42,folder43,folder44,folder45,folder46,folder47,folder48,folder49,folder50
TITLE ""
FILE "06.mp3" MP3
  TRACK 01 AUDIO
    TITLE "0:"
    INDEX 01 00:00:00
  TRACK 02 AUDIO
    TITLE "37:cjc135_4260"
    INDEX 01 00:00:15
  TRACK 03 AUDIO
    TITLE "0:"
    INDEX 01 00:01:24
  TRACK 04 AUDIO
    TITLE "38:cjc135_4261"
    INDEX 01 00:01:73
  TRACK 05 AUDIO
    TITLE "0:"
    INDEX 01 00:04:03
  TRACK 06 AUDIO
    TITLE "39:cjc135_4262"
    INDEX 01 00:04:27
  TRACK 07 AUDIO
    TITLE "0:"
    INDEX 01 00:06:57
  TRACK 08 AUDIO
    TITLE "40:cjc135_4263"
    INDEX 01 00:07:07
  TRACK 09 AUDIO
    TITLE "0:"
    INDEX 01 00:09:36
  TRACK 10 AUDIO
    TITLE "37:cjc135_4264"
    INDEX 01 00:10:37
  TRACK 11 AUDIO
    TITLE "0:"
    INDEX 01 00:11:42
  TRACK 12 AUDIO
    TITLE "38:cjc135_4265"
    INDEX 01 00:12:20
  TRACK 13 AUDIO
    TITLE "0:"
    INDEX 01 00:14:72
  TRACK 14 AUDIO
    TITLE "39:cjc135_4266"
    INDEX 01 00:15:23
  TRACK 15 AUDIO
    TITLE "0:"
    INDEX 01 00:17:27
  TRACK 16 AUDIO
    TITLE "40:cjc135_4267"
    INDEX 01 00:17:55
  TRACK 17 AUDIO
    TITLE "0:"
    INDEX 01 00:19:60
  TRACK 18 AUDIO
    TITLE "37:cjc135_4268"
    INDEX 01 00:20:63
  TRACK 19 AUDIO
    TITLE "0:"
    INDEX 01 00:21:58
  TRACK 20 AUDIO
    TITLE "38:cjc135_4269"
    INDEX 01 00:22:32
  TRACK 21 AUDIO
    TITLE "0:"
    INDEX 01 00:24:57
  TRACK 22 AUDIO
    TITLE "39:cjc135_4270"
    INDEX 01 00:25:07
  TRACK 23 AUDIO
    TITLE "0:"
    INDEX 01 00:27:34
  TRACK 24 AUDIO
    TITLE "40:cjc135_4271"
    INDEX 01 00:27:59
  TRACK 25 AUDIO
    TITLE "0:"
    INDEX 01 00:30:10
  TRACK 26 AUDIO
    TITLE "37:cjc135_4272"
    INDEX 01 00:31:12
  TRACK 27 AUDIO
    TITLE "0:"
    INDEX 01 00:32:15
  TRACK 28 AUDIO
    TITLE "38:cjc135_4273"
    INDEX 01 00:32:64
  TRACK 29 AUDIO
    TITLE "0:"
    INDEX 01 00:35:39
  TRACK 30 AUDIO
    TITLE "39:cjc135_4274"
    INDEX 01 00:35:64
  TRACK 31 AUDIO
    TITLE "0:"
    INDEX 01 00:38:67
  TRACK 32 AUDIO
    TITLE "40:cjc135_4275"
    INDEX 01 00:39:15
  TRACK 33 AUDIO
    TITLE "0:"
    INDEX 01 00:42:16
  TRACK 34 AUDIO
    TITLE "37:cjc135_4276"
    INDEX 01 00:43:15
  TRACK 35 AUDIO
    TITLE "0:"
    INDEX 01 00:44:18
  TRACK 36 AUDIO
    TITLE "38:cjc135_4277"
    INDEX 01 00:44:69
  TRACK 37 AUDIO
    TITLE "0:"
    INDEX 01 00:47:19
  TRACK 38 AUDIO
    TITLE "39:cjc135_4278"
    INDEX 01 00:47:42
  TRACK 39 AUDIO
    TITLE "0:"
    INDEX 01 00:50:09
  TRACK 40 AUDIO
    TITLE "40:cjc135_4279"
    INDEX 01 00:50:35
  TRACK 41 AUDIO
    TITLE "0:"
    INDEX 01 00:53:00
  TRACK 42 AUDIO
    TITLE "37:cjc135_4280"
    INDEX 01 00:54:03
  TRACK 43 AUDIO
    TITLE "0:"
    INDEX 01 00:55:18
  TRACK 44 AUDIO
    TITLE "38:cjc135_4281"
    INDEX 01 00:55:69
  TRACK 45 AUDIO
    TITLE "0:"
    INDEX 01 00:59:04
  TRACK 46 AUDIO
    TITLE "39:cjc135_4282"
    INDEX 01 00:59:28
  TRACK 47 AUDIO
    TITLE "0:"
    INDEX 01 01:02:22
  TRACK 48 AUDIO
    TITLE "40:cjc135_4283"
    INDEX 01 01:02:48
  TRACK 49 AUDIO
    TITLE "0:"
    INDEX 01 01:05:42
  TRACK 50 AUDIO
    TITLE "37:cjc135_4284"
    INDEX 01 01:06:42
  TRACK 51 AUDIO
    TITLE "0:"
    INDEX 01 01:07:39
  TRACK 52 AUDIO
    TITLE "38:cjc135_4285"
    INDEX 01 01:08:13
  TRACK 53 AUDIO
    TITLE "0:"
    INDEX 01 01:11:03
  TRACK 54 AUDIO
    TITLE "39:cjc135_4286"
    INDEX 01 01:11:27
  TRACK 55 AUDIO
    TITLE "0:"
    INDEX 01 01:13:42
  TRACK 56 AUDIO
    TITLE "40:cjc135_4287"
    INDEX 01 01:13:65
  TRACK 57 AUDIO
    TITLE "0:"
    INDEX 01 01:16:03
  TRACK 58 AUDIO
    TITLE "37:cjc135_4288"
    INDEX 01 01:17:02
  TRACK 59 AUDIO
    TITLE "0:"
    INDEX 01 01:18:00
  TRACK 60 AUDIO
    TITLE "38:cjc135_4289"
    INDEX 01 01:18:53
  TRACK 61 AUDIO
    TITLE "0:"
    INDEX 01 01:20:55
  TRACK 62 AUDIO
    TITLE "39:cjc135_4290"
    INDEX 01 01:21:06
  TRACK 63 AUDIO
    TITLE "0:"
    INDEX 01 01:23:07
  TRACK 64 AUDIO
    TITLE "40:cjc135_4291"
    INDEX 01 01:23:30
  TRACK 65 AUDIO
    TITLE "0:"
    INDEX 01 01:25:31
  TRACK 66 AUDIO
    TITLE "37:cjc135_4292"
    INDEX 01 01:26:30
  TRACK 67 AUDIO
    TITLE "0:"
    INDEX 01 01:27:46
  TRACK 68 AUDIO
    TITLE "38:cjc135_4293"
    INDEX 01 01:28:20
  TRACK 69 AUDIO
    TITLE "0:"
    INDEX 01 01:31:06
  TRACK 70 AUDIO
    TITLE "39:cjc135_4294"
    INDEX 01 01:31:32
  TRACK 71 AUDIO
    TITLE "0:"
    INDEX 01 01:34:06
  TRACK 72 AUDIO
    TITLE "40:cjc135_4295"
    INDEX 01 01:34:30
  TRACK 73 AUDIO
    TITLE "0:"
    INDEX 01 01:37:03
  TRACK 74 AUDIO
    TITLE "37:cjc135_4296"
    INDEX 01 01:38:02
  TRACK 75 AUDIO
    TITLE "0:"
    INDEX 01 01:39:00
  TRACK 76 AUDIO
    TITLE "38:cjc135_4297"
    INDEX 01 01:39:49
  TRACK 77 AUDIO
    TITLE "0:"
    INDEX 01 01:42:24
  TRACK 78 AUDIO
    TITLE "39:cjc135_4298"
    INDEX 01 01:42:49
  TRACK 79 AUDIO
    TITLE "0:"
    INDEX 01 01:45:06
  TRACK 80 AUDIO
    TITLE "40:cjc135_4299"
    INDEX 01 01:45:32
  TRACK 81 AUDIO
    TITLE "0:"
    INDEX 01 01:47:66
  TRACK 82 AUDIO
    TITLE "37:cjc135_4300"
    INDEX 01 01:48:65
  TRACK 83 AUDIO
    TITLE "0:"
    INDEX 01 01:49:73
  TRACK 84 AUDIO
    TITLE "38:cjc135_4301"
    INDEX 01 01:50:45
  TRACK 85 AUDIO
    TITLE "0:"
    INDEX 01 01:53:21
  TRACK 86 AUDIO
    TITLE "39:cjc135_4302"
    INDEX 01 01:53:47
  TRACK 87 AUDIO
    TITLE "0:"
    INDEX 01 01:56:18
  TRACK 88 AUDIO
    TITLE "40:cjc135_4303"
    INDEX 01 01:56:41
  TRACK 89 AUDIO
    TITLE "0:"
    INDEX 01 01:59:12
  TRACK 90 AUDIO
    TITLE "37:cjc135_4304"
    INDEX 01 02:00:12
  TRACK 91 AUDIO
    TITLE "0:"
    INDEX 01 02:01:27
  TRACK 92 AUDIO
    TITLE "38:cjc135_4305"
    INDEX 01 02:02:03
  TRACK 93 AUDIO
    TITLE "0:"
    INDEX 01 02:04:66
  TRACK 94 AUDIO
    TITLE "39:cjc135_4306"
    INDEX 01 02:05:17
  TRACK 95 AUDIO
    TITLE "0:"
    INDEX 01 02:07:49
  TRACK 96 AUDIO
    TITLE "40:cjc135_4307"
    INDEX 01 02:08:00
  TRACK 97 AUDIO
    TITLE "0:"
    INDEX 01 02:10:30
  TRACK 98 AUDIO
    TITLE "37:cjc135_4308"
    INDEX 01 02:11:33
  TRACK 99 AUDIO
    TITLE "0:"
    INDEX 01 02:12:25
  TRACK 100 AUDIO
    TITLE "38:cjc135_4309"
    INDEX 01 02:12:74
  TRACK 101 AUDIO
    TITLE "0:"
    INDEX 01 02:15:64
  TRACK 102 AUDIO
    TITLE "39:cjc135_4310"
    INDEX 01 02:16:13
  TRACK 103 AUDIO
    TITLE "0:"
    INDEX 01 02:18:57
  TRACK 104 AUDIO
    TITLE "40:cjc135_4311"
    INDEX 01 02:19:03
  TRACK 105 AUDIO
    TITLE "0:"
    INDEX 01 02:21:45
  TRACK 106 AUDIO
    TITLE "37:cjc135_4312"
    INDEX 01 02:22:45
  TRACK 107 AUDIO
    TITLE "0:"
    INDEX 01 02:23:46
  TRACK 108 AUDIO
    TITLE "38:cjc135_4313"
    INDEX 01 02:24:22
  TRACK 109 AUDIO
    TITLE "0:"
    INDEX 01 02:26:25
  TRACK 110 AUDIO
    TITLE "39:cjc135_4314"
    INDEX 01 02:26:50
  TRACK 111 AUDIO
    TITLE "0:"
    INDEX 01 02:29:06
  TRACK 112 AUDIO
    TITLE "40:cjc135_4315"
    INDEX 01 02:29:31
  TRACK 113 AUDIO
    TITLE "0:"
    INDEX 01 02:31:63
  TRACK 114 AUDIO
    TITLE "37:cjc135_4316"
    INDEX 01 02:32:65
  TRACK 115 AUDIO
    TITLE "0:"
    INDEX 01 02:33:64
  TRACK 116 AUDIO
    TITLE "38:cjc135_4317"
    INDEX 01 02:34:40
  TRACK 117 AUDIO
    TITLE "0:"
    INDEX 01 02:37:09
  TRACK 118 AUDIO
    TITLE "39:cjc135_4318"
    INDEX 01 02:37:34
  TRACK 119 AUDIO
    TITLE "0:"
    INDEX 01 02:39:63
  TRACK 120 AUDIO
    TITLE "40:cjc135_4319"
    INDEX 01 02:40:11
  TRACK 121 AUDIO
    TITLE "0:"
    INDEX 01 02:42:42
  TRACK 122 AUDIO
    TITLE "37:cjc135_4320"
    INDEX 01 02:43:39
  TRACK 123 AUDIO
    TITLE "0:"
    INDEX 01 02:44:48
  TRACK 124 AUDIO
    TITLE "38:cjc135_4321"
    INDEX 01 02:45:24
  TRACK 125 AUDIO
    TITLE "0:"
    INDEX 01 02:48:70
  TRACK 126 AUDIO
    TITLE "39:cjc135_4322"
    INDEX 01 02:49:20
  TRACK 127 AUDIO
    TITLE "0:"
    INDEX 01 02:52:12
  TRACK 128 AUDIO
    TITLE "40:cjc135_4323"
    INDEX 01 02:52:34
  TRACK 129 AUDIO
    TITLE "0:"
    INDEX 01 02:55:27
  TRACK 130 AUDIO
    TITLE "37:cjc135_4324"
    INDEX 01 02:56:24
  TRACK 131 AUDIO
    TITLE "0:"
    INDEX 01 02:57:21
  TRACK 132 AUDIO
    TITLE "38:cjc135_4325"
    INDEX 01 02:57:69
  TRACK 133 AUDIO
    TITLE "0:"
    INDEX 01 03:00:45
  TRACK 134 AUDIO
    TITLE "39:cjc135_4326"
    INDEX 01 03:00:73
  TRACK 135 AUDIO
    TITLE "0:"
    INDEX 01 03:03:06
  TRACK 136 AUDIO
    TITLE "40:cjc135_4327"
    INDEX 01 03:03:30
  TRACK 137 AUDIO
    TITLE "0:"
    INDEX 01 03:05:39
  TRACK 138 AUDIO
    TITLE "37:cjc135_4328"
    INDEX 01 03:06:38
  TRACK 139 AUDIO
    TITLE "0:"
    INDEX 01 03:07:41
  TRACK 140 AUDIO
    TITLE "38:cjc135_4329"
    INDEX 01 03:08:13
  TRACK 141 AUDIO
    TITLE "0:"
    INDEX 01 03:10:46
  TRACK 142 AUDIO
    TITLE "39:cjc135_4330"
    INDEX 01 03:10:67
  TRACK 143 AUDIO
    TITLE "0:"
    INDEX 01 03:13:19
  TRACK 144 AUDIO
    TITLE "40:cjc135_4331"
    INDEX 01 03:13:40
  TRACK 145 AUDIO
    TITLE "0:"
    INDEX 01 03:15:66
  TRACK 146 AUDIO
    TITLE "37:cjc135_4332"
    INDEX 01 03:16:64
  TRACK 147 AUDIO
    TITLE "0:"
    INDEX 01 03:17:63
  TRACK 148 AUDIO
    TITLE "38:cjc135_4333"
    INDEX 01 03:18:39
  TRACK 149 AUDIO
    TITLE "0:"
    INDEX 01 03:21:30
  TRACK 150 AUDIO
    TITLE "39:cjc135_4334"
    INDEX 01 03:21:51
  TRACK 151 AUDIO
    TITLE "0:"
    INDEX 01 03:24:30
  TRACK 152 AUDIO
    TITLE "40:cjc135_4335"
    INDEX 01 03:24:56
  TRACK 153 AUDIO
    TITLE "0:"
    INDEX 01 03:27:34
  TRACK 154 AUDIO
    TITLE "37:cjc135_4336"
    INDEX 01 03:28:32
  TRACK 155 AUDIO
    TITLE "0:"
    INDEX 01 03:29:43
  TRACK 156 AUDIO
    TITLE "38:cjc135_4337"
    INDEX 01 03:30:17
  TRACK 157 AUDIO
    TITLE "0:"
    INDEX 01 03:32:34
  TRACK 158 AUDIO
    TITLE "39:cjc135_4338"
    INDEX 01 03:32:57
  TRACK 159 AUDIO
    TITLE "0:"
    INDEX 01 03:35:36
  TRACK 160 AUDIO
    TITLE "40:cjc135_4339"
    INDEX 01 03:35:59
  TRACK 161 AUDIO
    TITLE "0:"
    INDEX 01 03:38:40
  TRACK 162 AUDIO
    TITLE "37:cjc135_4340"
    INDEX 01 03:39:38
  TRACK 163 AUDIO
    TITLE "0:"
    INDEX 01 03:40:39
  TRACK 164 AUDIO
    TITLE "38:cjc135_4341"
    INDEX 01 03:41:13
  TRACK 165 AUDIO
    TITLE "0:"
    INDEX 01 03:44:43
  TRACK 166 AUDIO
    TITLE "39:cjc135_4342"
    INDEX 01 03:44:68
  TRACK 167 AUDIO
    TITLE "0:"
    INDEX 01 03:47:17
  TRACK 168 AUDIO
    TITLE "40:cjc135_4343"
    INDEX 01 03:47:43
  TRACK 169 AUDIO
    TITLE "0:"
    INDEX 01 03:49:69
  TRACK 170 AUDIO
    TITLE "37:cjc135_4344"
    INDEX 01 03:50:67
  TRACK 171 AUDIO
    TITLE "0:"
    INDEX 01 03:51:72
  TRACK 172 AUDIO
    TITLE "38:cjc135_4345"
    INDEX 01 03:52:50
  TRACK 173 AUDIO
    TITLE "0:"
    INDEX 01 03:55:15
  TRACK 174 AUDIO
    TITLE "39:cjc135_4346"
    INDEX 01 03:55:40
  TRACK 175 AUDIO
    TITLE "0:"
    INDEX 01 03:58:06
  TRACK 176 AUDIO
    TITLE "40:cjc135_4347"
    INDEX 01 03:58:29
  TRACK 177 AUDIO
    TITLE "0:"
    INDEX 01 04:00:69
  TRACK 178 AUDIO
    TITLE "37:cjc135_4348"
    INDEX 01 04:01:70
  TRACK 179 AUDIO
    TITLE "0:"
    INDEX 01 04:02:70
  TRACK 180 AUDIO
    TITLE "38:cjc135_4349"
    INDEX 01 04:03:44
  TRACK 181 AUDIO
    TITLE "0:"
    INDEX 01 04:05:66
  TRACK 182 AUDIO
    TITLE "39:cjc135_4350"
    INDEX 01 04:06:17
  TRACK 183 AUDIO
    TITLE "0:"
    INDEX 01 04:08:22
  TRACK 184 AUDIO
    TITLE "40:cjc135_4351"
    INDEX 01 04:08:45
  TRACK 185 AUDIO
    TITLE "0:"
    INDEX 01 04:10:48
  TRACK 186 AUDIO
    TITLE "37:cjc135_4352"
    INDEX 01 04:11:47
  TRACK 187 AUDIO
    TITLE "0:"
    INDEX 01 04:12:51
  TRACK 188 AUDIO
    TITLE "38:cjc135_4353"
    INDEX 01 04:13:27
  TRACK 189 AUDIO
    TITLE "0:"
    INDEX 01 04:16:09
  TRACK 190 AUDIO
    TITLE "39:cjc135_4354"
    INDEX 01 04:16:35
  TRACK 191 AUDIO
    TITLE "0:"
    INDEX 01 04:19:43
  TRACK 192 AUDIO
    TITLE "40:cjc135_4355"
    INDEX 01 04:19:66
  TRACK 193 AUDIO
    TITLE "0:"
    INDEX 01 04:23:00
  TRACK 194 AUDIO
    TITLE "37:cjc135_4356"
    INDEX 01 04:23:74
  TRACK 195 AUDIO
    TITLE "0:"
    INDEX 01 04:25:06
  TRACK 196 AUDIO
    TITLE "38:cjc135_4357"
    INDEX 01 04:25:57
  TRACK 197 AUDIO
    TITLE "0:"
    INDEX 01 04:28:18
  TRACK 198 AUDIO
    TITLE "39:cjc135_4358"
    INDEX 01 04:28:52
  TRACK 199 AUDIO
    TITLE "0:"
    INDEX 01 04:30:72
  TRACK 200 AUDIO
    TITLE "40:cjc135_4359"
    INDEX 01 04:31:23
  TRACK 201 AUDIO
    TITLE "0:"
    INDEX 01 04:33:39
  TRACK 202 AUDIO
    TITLE "37:cjc135_4360"
    INDEX 01 04:34:42
  TRACK 203 AUDIO
    TITLE "0:"
    INDEX 01 04:35:36
  TRACK 204 AUDIO
    TITLE "38:cjc135_4361"
    INDEX 01 04:36:12
  TRACK 205 AUDIO
    TITLE "0:"
    INDEX 01 04:38:58
  TRACK 206 AUDIO
    TITLE "39:cjc135_4362"
    INDEX 01 04:39:10
  TRACK 207 AUDIO
    TITLE "0:"
    INDEX 01 04:41:54
  TRACK 208 AUDIO
    TITLE "40:cjc135_4363"
    INDEX 01 04:42:05
  TRACK 209 AUDIO
    TITLE "0:"
    INDEX 01 04:44:51
  TRACK 210 AUDIO
    TITLE "37:cjc135_4364"
    INDEX 01 04:45:50
  TRACK 211 AUDIO
    TITLE "0:"
    INDEX 01 04:46:59
  TRACK 212 AUDIO
    TITLE "38:cjc135_4365"
    INDEX 01 04:47:35
  TRACK 213 AUDIO
    TITLE "0:"
    INDEX 01 04:51:17
  TRACK 214 AUDIO
    TITLE "39:cjc135_4366"
    INDEX 01 04:51:41
  TRACK 215 AUDIO
    TITLE "0:"
    INDEX 01 04:54:12
  TRACK 216 AUDIO
    TITLE "40:cjc135_4367"
    INDEX 01 04:54:39
  TRACK 217 AUDIO
    TITLE "0:"
    INDEX 01 04:57:12
  TRACK 218 AUDIO
    TITLE "37:cjc135_4368"
    INDEX 01 04:58:16
  TRACK 219 AUDIO
    TITLE "0:"
    INDEX 01 04:59:21
  TRACK 220 AUDIO
    TITLE "38:cjc135_4369"
    INDEX 01 04:59:72
  TRACK 221 AUDIO
    TITLE "0:"
    INDEX 01 05:02:31
  TRACK 222 AUDIO
    TITLE "39:cjc135_4370"
    INDEX 01 05:02:64
  TRACK 223 AUDIO
    TITLE "0:"
    INDEX 01 05:05:33
  TRACK 224 AUDIO
    TITLE "40:cjc135_4371"
    INDEX 01 05:05:59
  TRACK 225 AUDIO
    TITLE "0:"
    INDEX 01 05:08:30
  TRACK 226 AUDIO
    TITLE "37:cjc135_4372"
    INDEX 01 05:09:29
  TRACK 227 AUDIO
    TITLE "0:"
    INDEX 01 05:10:42
  TRACK 228 AUDIO
    TITLE "38:cjc135_4373"
    INDEX 01 05:11:16
  TRACK 229 AUDIO
    TITLE "0:"
    INDEX 01 05:13:58
  TRACK 230 AUDIO
    TITLE "39:cjc135_4374"
    INDEX 01 05:14:07
  TRACK 231 AUDIO
    TITLE "0:"
    INDEX 01 05:16:31
  TRACK 232 AUDIO
    TITLE "40:cjc135_4375"
    INDEX 01 05:16:55
  TRACK 233 AUDIO
    TITLE "0:"
    INDEX 01 05:19:04
  TRACK 234 AUDIO
    TITLE "37:cjc135_4376"
    INDEX 01 05:20:01
  TRACK 235 AUDIO
    TITLE "0:"
    INDEX 01 05:21:09
  TRACK 236 AUDIO
    TITLE "38:cjc135_4377"
    INDEX 01 05:21:58
  TRACK 237 AUDIO
    TITLE "0:"
    INDEX 01 05:24:42
  TRACK 238 AUDIO
    TITLE "39:cjc135_4378"
    INDEX 01 05:24:68
  TRACK 239 AUDIO
    TITLE "0:"
    INDEX 01 05:27:13
  TRACK 240 AUDIO
    TITLE "40:cjc135_4379"
    INDEX 01 05:27:37
  TRACK 241 AUDIO
    TITLE "0:"
    INDEX 01 05:29:57
  TRACK 242 AUDIO
    TITLE "37:cjc135_4380"
    INDEX 01 05:30:57
  TRACK 243 AUDIO
    TITLE "0:"
    INDEX 01 05:31:64
  TRACK 244 AUDIO
    TITLE "38:cjc135_4381"
    INDEX 01 05:32:38
  TRACK 245 AUDIO
    TITLE "0:"
    INDEX 01 05:34:56
  TRACK 246 AUDIO
    TITLE "39:cjc135_4382"
    INDEX 01 05:35:17
  TRACK 247 AUDIO
    TITLE "0:"
    INDEX 01 05:38:09
  TRACK 248 AUDIO
    TITLE "40:cjc135_4383"
    INDEX 01 05:38:33
  TRACK 249 AUDIO
    TITLE "0:"
    INDEX 01 05:41:25
  TRACK 250 AUDIO
    TITLE "37:cjc135_4384"
    INDEX 01 05:42:23
  TRACK 251 AUDIO
    TITLE "0:"
    INDEX 01 05:43:28
  TRACK 252 AUDIO
    TITLE "38:cjc135_4385"
    INDEX 01 05:44:02
  TRACK 253 AUDIO
    TITLE "0:"
    INDEX 01 05:47:12
  TRACK 254 AUDIO
    TITLE "39:cjc135_4386"
    INDEX 01 05:47:38
  TRACK 255 AUDIO
    TITLE "0:"
    INDEX 01 05:50:18
  TRACK 256 AUDIO
    TITLE "40:cjc135_4387"
    INDEX 01 05:50:42
  TRACK 257 AUDIO
    TITLE "0:"
    INDEX 01 05:53:22
  TRACK 258 AUDIO
    TITLE "37:cjc135_4388"
    INDEX 01 05:54:22
  TRACK 259 AUDIO
    TITLE "0:"
    INDEX 01 05:55:43
  TRACK 260 AUDIO
    TITLE "38:cjc135_4389"
    INDEX 01 05:56:17
  TRACK 261 AUDIO
    TITLE "0:"
    INDEX 01 05:58:57
  TRACK 262 AUDIO
    TITLE "39:cjc135_4390"
    INDEX 01 05:59:09
  TRACK 263 AUDIO
    TITLE "0:"
    INDEX 01 06:01:40
  TRACK 264 AUDIO
    TITLE "40:cjc135_4391"
    INDEX 01 06:01:61
  TRACK 265 AUDIO
    TITLE "0:"
    INDEX 01 06:04:16
  TRACK 266 AUDIO
    TITLE "37:cjc135_4392"
    INDEX 01 06:05:14
  TRACK 267 AUDIO
    TITLE "0:"
    INDEX 01 06:06:15
  TRACK 268 AUDIO
    TITLE "38:cjc135_4393"
    INDEX 01 06:06:66
  TRACK 269 AUDIO
    TITLE "0:"
    INDEX 01 06:09:39
  TRACK 270 AUDIO
    TITLE "39:cjc135_4394"
    INDEX 01 06:09:65
  TRACK 271 AUDIO
    TITLE "0:"
    INDEX 01 06:12:24
  TRACK 272 AUDIO
    TITLE "40:cjc135_4395"
    INDEX 01 06:12:49
  TRACK 273 AUDIO
    TITLE "0:"
    INDEX 01 06:15:10
  TRACK 274 AUDIO
    TITLE "37:cjc135_4396"
    INDEX 01 06:16:10
  TRACK 275 AUDIO
    TITLE "0:"
    INDEX 01 06:17:21
  TRACK 276 AUDIO
    TITLE "38:cjc135_4397"
    INDEX 01 06:17:74
  TRACK 277 AUDIO
    TITLE "0:"
    INDEX 01 06:21:27
  TRACK 278 AUDIO
    TITLE "39:cjc135_4398"
    INDEX 01 06:21:52
  TRACK 279 AUDIO
    TITLE "0:"
    INDEX 01 06:24:33
  TRACK 280 AUDIO
    TITLE "40:cjc135_4399"
    INDEX 01 06:24:56
  TRACK 281 AUDIO
    TITLE "0:"
    INDEX 01 06:27:37
  TRACK 282 AUDIO
    TITLE "37:cjc135_4400"
    INDEX 01 06:28:36
  TRACK 283 AUDIO
    TITLE "0:"
    INDEX 01 06:29:48
  TRACK 284 AUDIO
    TITLE "38:cjc135_4401"
    INDEX 01 06:30:26
  TRACK 285 AUDIO
    TITLE "0:"
    INDEX 01 06:33:04
  TRACK 286 AUDIO
    TITLE "39:cjc135_4402"
    INDEX 01 06:33:24
  TRACK 287 AUDIO
    TITLE "0:"
    INDEX 01 06:35:54
  TRACK 288 AUDIO
    TITLE "40:cjc135_4403"
    INDEX 01 06:36:05
  TRACK 289 AUDIO
    TITLE "0:"
    INDEX 01 06:38:37
  TRACK 290 AUDIO
    TITLE "37:cjc135_4404"
    INDEX 01 06:39:36
  TRACK 291 AUDIO
    TITLE "0:"
    INDEX 01 06:40:30
  TRACK 292 AUDIO
    TITLE "38:cjc135_4405"
    INDEX 01 06:41:04
  TRACK 293 AUDIO
    TITLE "0:"
    INDEX 01 06:43:42
  TRACK 294 AUDIO
    TITLE "39:cjc135_4406"
    INDEX 01 06:43:69
  TRACK 295 AUDIO
    TITLE "0:"
    INDEX 01 06:46:15
  TRACK 296 AUDIO
    TITLE "40:cjc135_4407"
    INDEX 01 06:46:40
  TRACK 297 AUDIO
    TITLE "0:"
    INDEX 01 06:48:61
  TRACK 298 AUDIO
    TITLE "37:cjc135_4408"
    INDEX 01 06:49:60
  TRACK 299 AUDIO
    TITLE "0:"
    INDEX 01 06:50:64
  TRACK 300 AUDIO
    TITLE "38:cjc135_4409"
    INDEX 01 06:51:38
  TRACK 301 AUDIO
    TITLE "0:"
    INDEX 01 06:53:60
  TRACK 302 AUDIO
    TITLE "39:cjc135_4410"
    INDEX 01 06:54:06
  TRACK 303 AUDIO
    TITLE "0:"
    INDEX 01 06:56:39
  TRACK 304 AUDIO
    TITLE "40:cjc135_4411"
    INDEX 01 06:56:64
  TRACK 305 AUDIO
    TITLE "0:"
    INDEX 01 06:59:21
  TRACK 306 AUDIO
    TITLE "37:cjc135_4412"
    INDEX 01 07:00:25
  TRACK 307 AUDIO
    TITLE "0:"
    INDEX 01 07:01:59
  TRACK 308 AUDIO
    TITLE "38:cjc135_4413"
    INDEX 01 07:02:33
  TRACK 309 AUDIO
    TITLE "0:"
    INDEX 01 07:04:66
  TRACK 310 AUDIO
    TITLE "39:cjc135_4414"
    INDEX 01 07:05:14
  TRACK 311 AUDIO
    TITLE "0:"
    INDEX 01 07:07:54
  TRACK 312 AUDIO
    TITLE "40:cjc135_4415"
    INDEX 01 07:08:03
  TRACK 313 AUDIO
    TITLE "0:"
    INDEX 01 07:10:39
  TRACK 314 AUDIO
    TITLE "37:cjc135_4416"
    INDEX 01 07:11:40
  TRACK 315 AUDIO
    TITLE "0:"
    INDEX 01 07:12:36
  TRACK 316 AUDIO
    TITLE "38:cjc135_4417"
    INDEX 01 07:13:12
  TRACK 317 AUDIO
    TITLE "0:"
    INDEX 01 07:16:73
  TRACK 318 AUDIO
    TITLE "39:cjc135_4418"
    INDEX 01 07:17:23
  TRACK 319 AUDIO
    TITLE "0:"
    INDEX 01 07:20:06
  TRACK 320 AUDIO
    TITLE "40:cjc135_4419"
    INDEX 01 07:20:31
  TRACK 321 AUDIO
    TITLE "0:"
    INDEX 01 07:23:16
  TRACK 322 AUDIO
    TITLE "37:cjc135_4420"
    INDEX 01 07:24:17
  TRACK 323 AUDIO
    TITLE "0:"
    INDEX 01 07:25:46
  TRACK 324 AUDIO
    TITLE "38:cjc135_4421"
    INDEX 01 07:26:16
  TRACK 325 AUDIO
    TITLE "0:"
    INDEX 01 07:29:48
  TRACK 326 AUDIO
    TITLE "39:cjc135_4422"
    INDEX 01 07:29:71
  TRACK 327 AUDIO
    TITLE "0:"
    INDEX 01 07:32:60
  TRACK 328 AUDIO
    TITLE "40:cjc135_4423"
    INDEX 01 07:33:12
  TRACK 329 AUDIO
    TITLE "0:"
    INDEX 01 07:36:01
  TRACK 330 AUDIO
    TITLE "37:cjc135_4424"
    INDEX 01 07:37:02
  TRACK 331 AUDIO
    TITLE "0:"
    INDEX 01 07:38:27
  TRACK 332 AUDIO
    TITLE "38:cjc135_4425"
    INDEX 01 07:39:01
  TRACK 333 AUDIO
    TITLE "0:"
    INDEX 01 07:41:39
  TRACK 334 AUDIO
    TITLE "39:cjc135_4426"
    INDEX 01 07:41:67
  TRACK 335 AUDIO
    TITLE "0:"
    INDEX 01 07:44:55
  TRACK 336 AUDIO
    TITLE "40:cjc135_4427"
    INDEX 01 07:45:04
  TRACK 337 AUDIO
    TITLE "0:"
    INDEX 01 07:47:67
  TRACK 338 AUDIO
    TITLE "37:cjc135_4428"
    INDEX 01 07:48:67
  TRACK 339 AUDIO
    TITLE "0:"
    INDEX 01 07:50:01
  TRACK 340 AUDIO
    TITLE "38:cjc135_4429"
    INDEX 01 07:50:52
  TRACK 341 AUDIO
    TITLE "0:"
    INDEX 01 07:53:52
  TRACK 342 AUDIO
    TITLE "39:cjc135_4430"
    INDEX 01 07:54:03
  TRACK 343 AUDIO
    TITLE "0:"
    INDEX 01 07:56:72
  TRACK 344 AUDIO
    TITLE "40:cjc135_4431"
    INDEX 01 07:57:25
  TRACK 345 AUDIO
    TITLE "0:"
    INDEX 01 08:00:21
  TRACK 346 AUDIO
    TITLE "37:cjc135_4432"
    INDEX 01 08:01:22
  TRACK 347 AUDIO
    TITLE "0:"
    INDEX 01 08:02:34
  TRACK 348 AUDIO
    TITLE "38:cjc135_4433"
    INDEX 01 08:03:10
  TRACK 349 AUDIO
    TITLE "0:"
    INDEX 01 08:05:54
  TRACK 350 AUDIO
    TITLE "39:cjc135_4434"
    INDEX 01 08:06:04
  TRACK 351 AUDIO
    TITLE "0:"
    INDEX 01 08:08:66
  TRACK 352 AUDIO
    TITLE "40:cjc135_4435"
    INDEX 01 08:09:14
  TRACK 353 AUDIO
    TITLE "0:"
    INDEX 01 08:12:01
  TRACK 354 AUDIO
    TITLE "37:cjc135_4436"
    INDEX 01 08:13:00
  TRACK 355 AUDIO
    TITLE "0:"
    INDEX 01 08:14:21
  TRACK 356 AUDIO
    TITLE "38:cjc135_4437"
    INDEX 01 08:14:72
  TRACK 357 AUDIO
    TITLE "0:"
    INDEX 01 08:18:33
  TRACK 358 AUDIO
    TITLE "39:cjc135_4438"
    INDEX 01 08:18:54
  TRACK 359 AUDIO
    TITLE "0:"
    INDEX 01 08:21:51
  TRACK 360 AUDIO
    TITLE "40:cjc135_4439"
    INDEX 01 08:22:03
  TRACK 361 AUDIO
    TITLE "0:"
    INDEX 01 08:24:74
  TRACK 362 AUDIO
    TITLE "37:cjc135_4440"
    INDEX 01 08:25:74
  TRACK 363 AUDIO
    TITLE "0:"
    INDEX 01 08:27:24
  TRACK 364 AUDIO
    TITLE "38:cjc135_4441"
    INDEX 01 08:28:00
  TRACK 365 AUDIO
    TITLE "0:"
    INDEX 01 08:30:36
  TRACK 366 AUDIO
    TITLE "39:cjc135_4442"
    INDEX 01 08:30:59
  TRACK 367 AUDIO
    TITLE "0:"
    INDEX 01 08:33:21
  TRACK 368 AUDIO
    TITLE "40:cjc135_4443"
    INDEX 01 08:33:44
  TRACK 369 AUDIO
    TITLE "0:"
    INDEX 01 08:36:03
  TRACK 370 AUDIO
    TITLE "37:cjc135_4444"
    INDEX 01 08:37:05
  TRACK 371 AUDIO
    TITLE "0:"
    INDEX 01 08:38:22
  TRACK 372 AUDIO
    TITLE "38:cjc135_4445"
    INDEX 01 08:38:71
  TRACK 373 AUDIO
    TITLE "0:"
    INDEX 01 08:42:18
  TRACK 374 AUDIO
    TITLE "39:cjc135_4446"
    INDEX 01 08:42:43
  TRACK 375 AUDIO
    TITLE "0:"
    INDEX 01 08:45:30
  TRACK 376 AUDIO
    TITLE "40:cjc135_4447"
    INDEX 01 08:45:55
  TRACK 377 AUDIO
    TITLE "0:"
    INDEX 01 08:48:42
  TRACK 378 AUDIO
    TITLE "37:cjc135_4448"
    INDEX 01 08:49:43
  TRACK 379 AUDIO
    TITLE "0:"
    INDEX 01 08:50:46
  TRACK 380 AUDIO
    TITLE "38:cjc135_4449"
    INDEX 01 08:51:18
  TRACK 381 AUDIO
    TITLE "0:"
    INDEX 01 08:53:70
  TRACK 382 AUDIO
    TITLE "39:cjc135_4450"
    INDEX 01 08:54:21
  TRACK 383 AUDIO
    TITLE "0:"
    INDEX 01 08:57:15
  TRACK 384 AUDIO
    TITLE "40:cjc135_4451"
    INDEX 01 08:57:43
  TRACK 385 AUDIO
    TITLE "0:"
    INDEX 01 09:00:39
  TRACK 386 AUDIO
    TITLE "37:cjc135_4452"
    INDEX 01 09:01:38
  TRACK 387 AUDIO
    TITLE "0:"
    INDEX 01 09:02:36
  TRACK 388 AUDIO
    TITLE "38:cjc135_4453"
    INDEX 01 09:03:12
  TRACK 389 AUDIO
    TITLE "0:"
    INDEX 01 09:06:12
  TRACK 390 AUDIO
    TITLE "39:cjc135_4454"
    INDEX 01 09:06:38
  TRACK 391 AUDIO
    TITLE "0:"
    INDEX 01 09:08:52
  TRACK 392 AUDIO
    TITLE "40:cjc135_4455"
    INDEX 01 09:09:01
  TRACK 393 AUDIO
    TITLE "0:"
    INDEX 01 09:11:13
  TRACK 394 AUDIO
    TITLE "37:cjc135_4456"
    INDEX 01 09:12:13
  TRACK 395 AUDIO
    TITLE "0:"
    INDEX 01 09:13:24
  TRACK 396 AUDIO
    TITLE "38:cjc135_4457"
    INDEX 01 09:14:00
  TRACK 397 AUDIO
    TITLE "0:"
    INDEX 01 09:16:42
  TRACK 398 AUDIO
    TITLE "39:cjc135_4458"
    INDEX 01 09:16:67
  TRACK 399 AUDIO
    TITLE "0:"
    INDEX 01 09:19:60
  TRACK 400 AUDIO
    TITLE "40:cjc135_4459"
    INDEX 01 09:20:10
  TRACK 401 AUDIO
    TITLE "0:"
    INDEX 01 09:23:03
